<svg id="visual" viewBox="0 0 2000 540" width="2000" height="540" xmlns="http://www.w3.org/2000/svg" xmlns:xlink="http://www.w3.org/1999/xlink" version="1.1"><rect x="0" y="0" width="2000" height="540" fill="#fff"></rect><defs><linearGradient id="grad1_0" x1="73%" y1="100%" x2="100%" y2="0%"><stop offset="-24.074074074074076%" stop-color="#ffffff" stop-opacity="1"></stop><stop offset="124.07407407407408%" stop-color="#ffffff" stop-opacity="1"></stop></linearGradient></defs><defs><linearGradient id="grad2_0" x1="0%" y1="100%" x2="27%" y2="0%"><stop offset="-24.074074074074076%" stop-color="#ffffff" stop-opacity="1"></stop><stop offset="124.07407407407408%" stop-color="#ffffff" stop-opacity="1"></stop></linearGradient></defs><g transform="translate(2000, 540)"><path d="M-486 0C-481.8 -65.7 -477.6 -131.4 -449 -186C-420.4 -240.6 -367.6 -284 -316.8 -316.8C-266 -349.6 -217.4 -371.8 -164.9 -398.2C-112.5 -424.6 -56.2 -455.3 0 -486L0 0Z" fill="#FEF301"></path></g><g transform="translate(0, 0)"><path d="M486 0C470.9 57.8 455.8 115.6 437 181C418.1 246.4 395.5 319.5 343.7 343.7C291.8 367.8 210.6 342.9 148.5 358.5C86.3 374 43.2 430 0 486L0 0Z" fill="#FEF301"></path></g></svg>