<svg id="visual" viewBox="0 0 2000 540" width="2000" height="540" xmlns="http://www.w3.org/2000/svg" xmlns:xlink="http://www.w3.org/1999/xlink" version="1.1"><rect x="0" y="0" width="2000" height="540" fill="#fff"></rect><path d="M0 360L47.7 362.5C95.3 365 190.7 370 285.8 370.5C381 371 476 367 571.2 371C666.3 375 761.7 387 857 387.3C952.3 387.7 1047.7 376.3 1143 364.3C1238.3 352.3 1333.7 339.7 1428.8 335C1524 330.3 1619 333.7 1714.2 342.7C1809.3 351.7 1904.7 366.3 1952.3 373.7L2000 381L2000 541L1952.3 541C1904.7 541 1809.3 541 1714.2 541C1619 541 1524 541 1428.8 541C1333.7 541 1238.3 541 1143 541C1047.7 541 952.3 541 857 541C761.7 541 666.3 541 571.2 541C476 541 381 541 285.8 541C190.7 541 95.3 541 47.7 541L0 541Z" fill="#fffcbd"></path><path d="M0 409L47.7 406.5C95.3 404 190.7 399 285.8 401.8C381 404.7 476 415.3 571.2 420C666.3 424.7 761.7 423.3 857 418.2C952.3 413 1047.7 404 1143 397.5C1238.3 391 1333.7 387 1428.8 385.2C1524 383.3 1619 383.7 1714.2 386.5C1809.3 389.3 1904.7 394.7 1952.3 397.3L2000 400L2000 541L1952.3 541C1904.7 541 1809.3 541 1714.2 541C1619 541 1524 541 1428.8 541C1333.7 541 1238.3 541 1143 541C1047.7 541 952.3 541 857 541C761.7 541 666.3 541 571.2 541C476 541 381 541 285.8 541C190.7 541 95.3 541 47.7 541L0 541Z" fill="#fad893"></path><path d="M0 402L47.7 410.7C95.3 419.3 190.7 436.7 285.8 443.2C381 449.7 476 445.3 571.2 439.7C666.3 434 761.7 427 857 428.8C952.3 430.7 1047.7 441.3 1143 443.2C1238.3 445 1333.7 438 1428.8 438.3C1524 438.7 1619 446.3 1714.2 444.7C1809.3 443 1904.7 432 1952.3 426.5L2000 421L2000 541L1952.3 541C1904.7 541 1809.3 541 1714.2 541C1619 541 1524 541 1428.8 541C1333.7 541 1238.3 541 1143 541C1047.7 541 952.3 541 857 541C761.7 541 666.3 541 571.2 541C476 541 381 541 285.8 541C190.7 541 95.3 541 47.7 541L0 541Z" fill="#f7b174"></path><path d="M0 447L47.7 449.2C95.3 451.3 190.7 455.7 285.8 458.7C381 461.7 476 463.3 571.2 462.3C666.3 461.3 761.7 457.7 857 455.5C952.3 453.3 1047.7 452.7 1143 453.5C1238.3 454.3 1333.7 456.7 1428.8 458.5C1524 460.3 1619 461.7 1714.2 462C1809.3 462.3 1904.7 461.7 1952.3 461.3L2000 461L2000 541L1952.3 541C1904.7 541 1809.3 541 1714.2 541C1619 541 1524 541 1428.8 541C1333.7 541 1238.3 541 1143 541C1047.7 541 952.3 541 857 541C761.7 541 666.3 541 571.2 541C476 541 381 541 285.8 541C190.7 541 95.3 541 47.7 541L0 541Z" fill="#f18863"></path><path d="M0 476L47.7 482.5C95.3 489 190.7 502 285.8 504.5C381 507 476 499 571.2 493.8C666.3 488.7 761.7 486.3 857 483.3C952.3 480.3 1047.7 476.7 1143 479C1238.3 481.3 1333.7 489.7 1428.8 495.5C1524 501.3 1619 504.7 1714.2 503.8C1809.3 503 1904.7 498 1952.3 495.5L2000 493L2000 541L1952.3 541C1904.7 541 1809.3 541 1714.2 541C1619 541 1524 541 1428.8 541C1333.7 541 1238.3 541 1143 541C1047.7 541 952.3 541 857 541C761.7 541 666.3 541 571.2 541C476 541 381 541 285.8 541C190.7 541 95.3 541 47.7 541L0 541Z" fill="#e55c61"></path></svg>