<svg width="36" height="36" viewBox="0 0 36 36" fill="none" xmlns="http://www.w3.org/2000/svg">
<path d="M18 35.3384C15.5193 35.3384 11.617 34.8367 7.57537 32.133C7.38025 31.9936 2.47454 28.9554 0.411915 22.0707C0.356169 21.8477 -1.20474 16.719 2.14006 13.2627C2.33518 13.0397 4.00758 11.1444 6.85066 10.559C7.07365 7.99467 9.49863 0.719727 17.9721 0.719727H18C26.5014 0.719727 28.8985 7.99467 29.1493 10.559C31.9924 11.1165 33.6648 13.0397 33.8599 13.2627C37.2047 16.719 35.6438 21.8477 35.5881 22.0707C33.5255 28.9554 28.6476 31.9936 28.4246 32.133C24.383 34.8367 20.4807 35.3384 18 35.3384Z" fill="white"/>
<path d="M31.9645 32.0498C31.1562 32.0498 30.5151 32.6909 30.5151 33.4992C30.5151 34.3075 31.1562 34.9486 31.9645 34.9486C32.7729 34.9486 33.414 34.3075 33.414 33.4992C33.3861 32.7188 32.745 32.0498 31.9645 32.0498ZM31.9645 34.6978C31.2956 34.6978 30.766 34.1682 30.766 33.4992C30.766 32.8581 31.2956 32.3007 31.9645 32.3007C32.6056 32.3007 33.1631 32.8303 33.1631 33.4992C33.1352 34.1682 32.6056 34.6978 31.9645 34.6978Z" fill="white"/>
<path d="M32.6056 34.1688V33.8622C32.6056 33.6113 32.4941 33.5834 32.4105 33.5277C32.522 33.4719 32.6335 33.3604 32.6335 33.1096C32.6335 32.7472 32.3548 32.6357 32.1039 32.6357H31.3513V34.3918H31.5743V33.6392H32.1039C32.3826 33.6392 32.4105 33.8064 32.4105 33.9458C32.4105 34.0015 32.4105 34.2803 32.4384 34.3918H32.7171V34.3639C32.6335 34.3081 32.6335 34.2524 32.6056 34.1688ZM32.076 33.4162H31.5743V32.8309H32.1318C32.2433 32.8309 32.4384 32.8587 32.4384 33.1096C32.4105 33.3883 32.2433 33.4162 32.076 33.4162Z" fill="white"/>
<path d="M31.9365 32.0488C31.1281 32.0488 30.4871 32.6899 30.4871 33.4982C30.4871 34.3066 31.1281 34.9477 31.9365 34.9477C32.7448 34.9477 33.3859 34.3066 33.3859 33.4982C33.3859 32.7178 32.7448 32.0488 31.9365 32.0488ZM31.9365 34.6968C31.2675 34.6968 30.7379 34.1672 30.7379 33.4982C30.7379 32.8293 31.2675 32.2997 31.9365 32.2997C32.6054 32.2997 33.135 32.8293 33.135 33.4982C33.135 34.1672 32.6054 34.6968 31.9365 34.6968Z" fill="white"/>
<path d="M32.6054 34.1678V33.8612C32.6054 33.6103 32.4939 33.5825 32.4103 33.5267C32.5218 33.471 32.6332 33.3595 32.6332 33.1086C32.6332 32.7463 32.3545 32.6348 32.1037 32.6348H31.3511V34.3908H31.5741V33.6382H32.1037C32.3824 33.6382 32.4103 33.8054 32.4103 33.9448C32.4103 34.0006 32.4103 34.2793 32.4381 34.3908H32.7169V34.3629C32.6332 34.3072 32.6054 34.2514 32.6054 34.1678ZM32.0758 33.4152H31.5462V32.8299H32.1037C32.2151 32.8299 32.4103 32.8578 32.4103 33.1365C32.4103 33.3873 32.243 33.4152 32.0758 33.4152Z" fill="white"/>
<path d="M33.3302 13.8202C33.3302 13.8202 31.5742 11.6739 28.5082 11.2837C28.5082 11.2837 27.9507 1.38867 18.0278 1.38867H17.9999C8.10486 1.38867 7.51952 11.2837 7.51952 11.2837C4.5092 11.6461 2.7253 13.8202 2.7253 13.8202C-0.424386 17.0535 1.13652 21.9313 1.13652 21.9313C3.1434 28.6209 7.96549 31.5755 7.96549 31.5755C11.8399 34.1677 15.6307 34.6973 18.0278 34.7252C20.4249 34.6973 24.1878 34.1677 28.0901 31.5755C28.0901 31.5755 32.9121 28.6209 34.919 21.9313C34.919 21.9313 36.5078 17.0535 33.3302 13.8202Z" fill="#DC2F34"/>
<path d="M32.0759 14.5723C32.0759 14.5723 30.5429 12.872 27.1424 12.5097C27.1424 12.5097 26.9473 2.69824 18.0278 2.69824C9.10831 2.69824 8.91319 12.5097 8.91319 12.5097C5.51265 12.8441 3.97961 14.5723 3.97961 14.5723C1.10866 17.5269 2.61382 21.7079 2.61382 21.7079C4.48133 27.8958 8.91319 30.5158 8.91319 30.5158C12.5089 32.913 15.8815 33.3868 18.0278 33.3868C20.174 33.3868 23.5746 32.913 27.1424 30.5158C27.1424 30.5158 31.5742 27.8958 33.4417 21.7079C33.4417 21.7079 34.9748 17.5269 32.0759 14.5723Z" fill="white"/>
<path d="M32.1316 18.3358C32.1316 18.3358 31.4626 14.6844 27.8112 14.5451H24.7452C25.1354 13.6531 25.2748 12.9005 25.2748 11.5626C25.2469 7.63248 22.0972 4.56641 18.0556 4.56641H17.9719C13.9582 4.56641 10.7527 7.6046 10.7249 11.5347C10.7249 12.8727 10.8921 13.7089 11.3102 14.5451H8.10478C4.45337 14.7959 3.92377 18.3358 3.92377 18.3358C3.61717 20.9281 4.50912 22.6283 4.50912 22.6283C4.50912 22.6283 6.8226 29.0392 14.1533 31.0461C14.1533 31.0461 15.7421 31.5478 18.0277 31.5757C20.3133 31.5478 21.9021 31.0461 21.9021 31.0461C29.2328 29.0392 31.5463 22.6283 31.5463 22.6283C31.5463 22.6283 32.4382 20.9281 32.1316 18.3358ZM31.2675 22.5168C31.2675 22.5168 29.0098 28.8162 21.8185 30.7674C21.8185 30.7674 20.2576 31.2691 18.0277 31.2691C15.7978 31.2412 14.2369 30.7674 14.2369 30.7674C7.04559 28.8162 4.78785 22.5168 4.78785 22.5168C4.78785 22.5168 3.8959 20.8723 4.20251 18.308C4.20251 18.308 4.8436 14.8795 8.43926 14.7681H11.7562C11.2545 13.7646 11.0594 13.012 11.0594 11.7299C11.0872 7.88334 14.0697 4.78939 17.9998 4.78939H18.0556C22.0136 4.78939 24.9682 7.85546 24.996 11.7299C24.996 13.0399 24.8009 13.7646 24.2992 14.7681H27.6161C31.2118 14.8795 31.8529 18.308 31.8529 18.308C32.1595 20.8723 31.2675 22.5168 31.2675 22.5168Z" fill="#DC2F34"/>
<path d="M10.948 18.7539C10.1118 18.7539 9.44287 19.618 9.44287 20.705C9.44287 21.7921 10.1118 22.6562 10.948 22.6562C11.7842 22.6562 12.4532 21.7642 12.4532 20.705C12.4532 19.618 11.7842 18.7539 10.948 18.7539Z" fill="#DC2F34"/>
<path d="M30.6266 16.8306C29.4559 15.186 27.449 15.2139 27.449 15.2139H22.5991L22.5154 15.3254C21.5677 16.7469 20.0904 17.7225 17.9999 17.7225C16.4669 17.7225 14.46 16.7469 13.5123 15.3254L13.4845 15.2139H8.60663C8.60663 15.2139 6.59975 15.186 5.42907 16.8306C5.42907 16.8306 3.84029 18.4751 5.23395 22.2659C5.23395 22.2659 7.29658 28.2308 14.3207 30.2098C14.3207 30.2098 15.8258 30.6836 17.9721 30.7115H17.9999H18.0278C20.1741 30.6836 21.6792 30.2098 21.6792 30.2098C28.7033 28.2029 30.7659 22.2659 30.7659 22.2659C32.2432 18.4751 30.6266 16.8306 30.6266 16.8306ZM18.3623 18.1963H21.4562V19.0325H20.2577V21.2624H21.4562V22.0986H18.9198C18.6132 22.0986 18.3623 21.8478 18.3623 21.5411V18.1963ZM17.8327 18.1963V19.0604H16.8293V21.2903H17.8327V22.1544H15.5192C15.2126 22.1544 14.9618 21.9035 14.9618 21.5969V18.2521H17.8327V18.1963ZM11.9793 23.3529V24.9696H14.237V25.8336H7.71468V24.9696H9.94455V23.3529C8.55088 23.0184 7.54744 21.9871 7.54744 20.7607C7.54744 19.2555 9.08048 18.057 10.948 18.057C12.8434 18.057 14.3485 19.2555 14.3485 20.7607C14.3764 21.9871 13.373 23.0184 11.9793 23.3529ZM21.5399 23.6316H19.1149V25.4992C19.1149 25.9451 18.6689 26.2796 18.1114 26.2796C17.554 26.2796 17.108 25.9173 17.108 25.4992C17.108 25.4713 17.108 25.4434 17.108 25.4155V23.6595H14.8781V22.7397H21.5677V23.6316H21.5399ZM25.8045 23.8825C25.8045 25.973 22.5991 25.8615 22.5991 25.8615C22.3203 25.8615 22.1531 25.6385 22.1531 25.3598C22.1531 25.0811 22.3203 24.886 22.6548 24.8581C23.9927 24.6072 23.9927 23.7153 23.9927 23.7153V19.0883H22.1531V18.1963H25.8045V23.8825ZM28.5082 25.3319C28.5082 25.7779 28.118 26.1124 27.5605 26.1124C27.003 26.1124 26.5849 25.75 26.5849 25.3319V18.057H28.4803V25.3319H28.5082Z" fill="#DC2F34"/>
<path d="M14.8781 9.80616C14.8781 9.80616 15.7979 9.27657 16.1324 9.75042C16.1324 9.75042 16.4111 9.91766 16.3275 9.47168C16.3275 9.47168 15.8537 8.49612 14.7666 9.58318C14.7945 9.58318 14.237 10.1685 14.8781 9.80616Z" fill="#DC2F34"/>
<path d="M19.951 8.63547L19.2263 8.96995C18.7524 9.22081 19.0311 9.52741 19.0311 9.52741C19.4214 9.91764 19.7559 9.61103 19.7559 9.61103C20.2854 9.02569 20.8708 9.30443 20.8708 9.30443C20.7036 8.16162 19.951 8.63547 19.951 8.63547Z" fill="#DC2F34"/>
<path d="M18.6689 12.0365C19.087 12.0365 19.4215 11.702 19.3936 11.2839C19.3936 10.8658 19.0591 10.5314 18.641 10.5592C18.2229 10.5592 17.8884 10.8937 17.8884 11.3118C17.9442 11.7299 18.2787 12.0644 18.6689 12.0365Z" fill="#DC2F34"/>
<path d="M16.4948 11.0885C16.4948 11.0885 15.8537 11.2279 16.5785 11.6739C16.5785 11.6739 17.2474 12.0641 17.2474 11.646C17.2474 11.646 16.7736 11.7017 17.1638 11.1164C17.1638 11.1164 17.1917 10.3917 16.6621 10.3359C16.6621 10.3359 17.108 11.0885 16.4948 11.0885Z" fill="#DC2F34"/>
<path d="M15.8536 10.9769C15.8536 10.9769 16.4947 10.8097 15.7978 10.8097C15.7978 10.8097 15.1289 10.8933 14.8501 10.3637C14.8501 10.3637 14.2927 9.83413 14.6271 10.4752C14.6271 10.5031 14.878 11.3114 15.8536 10.9769Z" fill="#DC2F34"/>
<path d="M20.1182 13.2345L19.6443 13.5411C19.6443 13.5411 19.2262 13.7083 19.3656 13.2623C19.3656 13.2623 19.3099 12.0359 18.6966 12.5655C18.6966 12.5655 18.167 13.123 17.7768 13.2623C17.7768 13.2623 17.08 13.6526 16.3274 13.123C16.3274 13.123 15.4633 12.2868 15.0174 12.3425C15.0174 12.3425 14.4878 12.3146 15.0174 12.5098C15.0174 12.5098 15.3518 12.5934 15.6863 12.8442C15.6863 12.8442 16.2717 13.5411 16.6061 13.7083C16.6061 13.7083 17.08 14.0428 18.0277 14.0707C18.0277 14.0707 19.3377 14.2379 20.2297 13.4017C20.2854 13.346 20.5363 12.9836 20.1182 13.2345ZM18.4179 13.5411L18.0556 13.4853C18.0556 13.4853 18.5851 13.3181 18.7524 13.0672C18.7803 13.0672 18.6688 13.4853 18.4179 13.5411Z" fill="#DC2F34"/>
<path d="M23.4631 11.9249C23.4631 11.8413 23.4631 11.7855 23.4631 11.7019C23.4631 11.6462 23.4631 11.5625 23.4631 11.5068C23.5188 10.81 23.4352 9.1933 21.8743 7.35366C21.8743 7.35366 19.9511 4.70569 16.7735 6.21085C16.7735 6.21085 15.4913 5.3189 14.4321 6.29447C14.4321 6.29447 13.5123 7.01918 14.0419 8.2456C14.0419 8.2456 13.8189 8.49646 13.5681 8.91457C12.9548 9.77864 12.6204 10.7821 12.6204 11.7298C12.6204 14.0154 14.0419 15.9665 16.0209 16.8027C16.2718 16.9421 16.5784 17.0536 16.9129 17.1651C16.9129 17.1651 19.5608 18.0849 21.7907 15.7435C22.1809 15.3812 22.5154 14.9631 22.7663 14.4892C23.1007 14.2105 24.4944 13.0119 23.4631 11.9249ZM22.0694 13.3743C21.7628 14.545 20.8709 15.2697 20.4806 15.5484H20.4528C20.3413 15.632 20.2855 15.6599 20.2855 15.6599C19.6166 16.0501 18.864 16.2731 18.0557 16.2731C15.6307 16.2731 13.6517 14.3777 13.5123 12.0085C13.4287 10.3361 14.7666 8.94244 14.7666 8.94244C16.1045 9.10968 16.7735 8.60796 16.7735 8.60796C18.6968 9.75077 18.9197 8.38497 18.9197 8.38497C17.972 8.46859 18.3901 7.939 18.3901 7.939C18.6131 7.60452 19.1985 7.71601 19.1985 7.71601C22.1252 8.18986 21.1775 10.141 21.1775 10.141C22.0694 10.6427 21.6513 11.0608 21.6513 11.0608C21.066 10.8936 20.9824 11.1166 21.066 11.3953C21.1496 11.674 21.3447 11.8413 21.5677 12.0364C21.7071 12.1757 21.8186 12.3709 21.8743 12.5102C21.9022 12.566 21.9301 12.6217 21.9301 12.7053C21.9301 12.7332 21.9301 12.7611 21.9301 12.7611C21.9579 12.8726 21.9579 12.9841 21.9579 13.0398C21.9858 13.0677 22.0416 13.0398 22.0694 12.9841C22.2367 12.5938 22.8778 12.1757 22.8778 12.8168C22.8499 13.5973 22.0694 13.3743 22.0694 13.3743Z" fill="#DC2F34"/>
<path d="M21.8464 12.5098C21.8743 12.5934 21.9022 12.6491 21.9022 12.7049C21.8743 12.6213 21.8743 12.5655 21.8464 12.5098Z" fill="white"/>
</svg>
