<svg id="visual" viewBox="0 0 2000 540" width="2000" height="540" xmlns="http://www.w3.org/2000/svg" xmlns:xlink="http://www.w3.org/1999/xlink" version="1.1"><rect x="0" y="0" width="2000" height="540" fill="#FEF100"></rect><path d="M0 67L33.3 65.8C66.7 64.7 133.3 62.3 200 66.7C266.7 71 333.3 82 400 88.5C466.7 95 533.3 97 600 91.8C666.7 86.7 733.3 74.3 800 68C866.7 61.7 933.3 61.3 1000 62.3C1066.7 63.3 1133.3 65.7 1200 73.8C1266.7 82 1333.3 96 1400 92.2C1466.7 88.3 1533.3 66.7 1600 60C1666.7 53.3 1733.3 61.7 1800 68.3C1866.7 75 1933.3 80 1966.7 82.5L2000 85L2000 0L1966.7 0C1933.3 0 1866.7 0 1800 0C1733.3 0 1666.7 0 1600 0C1533.3 0 1466.7 0 1400 0C1333.3 0 1266.7 0 1200 0C1133.3 0 1066.7 0 1000 0C933.3 0 866.7 0 800 0C733.3 0 666.7 0 600 0C533.3 0 466.7 0 400 0C333.3 0 266.7 0 200 0C133.3 0 66.7 0 33.3 0L0 0Z" fill="#f67074" stroke-linecap="round" stroke-linejoin="miter"></path></svg>