<svg width="130" height="130" viewBox="0 0 130 130" fill="none" xmlns="http://www.w3.org/2000/svg">
<path d="M62.3744 88.92L83.9421 95.9582C87.8939 97.3934 92.277 95.3648 93.7102 91.4317C95.1574 87.5123 93.1119 83.1652 89.1462 81.7437L53.5108 69.7236C48.1397 67.9433 42.2955 68.2055 37.1054 70.455L20.9922 77.576" stroke="black" stroke-width="2" stroke-miterlimit="10" stroke-linecap="round" stroke-linejoin="round"/>
<path d="M93.4721 92.4807L116.153 83.331C119.966 81.5646 124.502 83.2068 126.283 86.9881C128.064 90.7695 126.408 95.2684 122.596 97.0348L88.0454 113.03L86.5983 113.637C80.114 116.397 72.6975 116.024 66.5194 112.643L52.8135 105.136C46.5936 101.727 39.1214 101.382 32.6094 104.197" stroke="black" stroke-width="2" stroke-miterlimit="10" stroke-linecap="round" stroke-linejoin="round"/>
<path d="M3 79.4384L14.9944 73.9734C16.9007 73.0764 19.1688 73.8906 20.0733 75.7813L32.6939 105.259C33.5983 107.15 32.7774 109.399 30.8711 110.296L3 124" stroke="black" stroke-width="2" stroke-miterlimit="10" stroke-linecap="round" stroke-linejoin="round"/>
<path d="M11.8087 92.48C12.8615 92.48 13.715 91.6336 13.715 90.5894C13.715 89.5452 12.8615 88.6987 11.8087 88.6987C10.7558 88.6987 9.90234 89.5452 9.90234 90.5894C9.90234 91.6336 10.7558 92.48 11.8087 92.48Z" fill="white" stroke="black" stroke-width="2" stroke-miterlimit="10" stroke-linecap="round" stroke-linejoin="round"/>
<path d="M69.0263 12.3546C69.0263 15.3217 66.6051 17.7091 63.6274 17.7091C60.6358 17.7091 58.2285 15.3079 58.2285 12.3546C58.2285 9.40128 60.6358 7 63.6274 7C66.6191 7 69.0263 9.40128 69.0263 12.3546Z" fill="#DC2F34" stroke="black" stroke-width="2" stroke-miterlimit="10" stroke-linecap="round" stroke-linejoin="round"/>
<path d="M31.1357 38.1339C31.1357 41.101 28.7145 43.4884 25.7368 43.4884C22.7451 43.4884 20.3379 41.0872 20.3379 38.1339C20.3379 35.1806 22.759 32.7793 25.7368 32.7793C28.7145 32.7793 31.1357 35.1806 31.1357 38.1339Z" fill="#DC2F34" stroke="black" stroke-width="2" stroke-miterlimit="10" stroke-linecap="round" stroke-linejoin="round"/>
<path d="M106.358 38.1339C106.358 41.101 103.937 43.4884 100.959 43.4884C97.9678 43.4884 95.5605 41.0872 95.5605 38.1339C95.5605 35.1806 97.9817 32.7793 100.959 32.7793C103.937 32.7793 106.358 35.1806 106.358 38.1339Z" fill="#DC2F34" stroke="black" stroke-width="2" stroke-miterlimit="10" stroke-linecap="round" stroke-linejoin="round"/>
<path d="M92.8878 83.9786L98.3146 44.9509C98.8712 43.7089 97.5493 42.4669 96.4083 43.1569L78.3331 54.0316C77.6235 54.4594 76.719 54.142 76.4129 53.3692L64.8776 19.3649C64.4184 18.2195 62.8461 18.2195 62.3869 19.3649L50.8516 53.3692C50.5316 54.142 49.6272 54.4594 48.9314 54.0316L30.8424 43.1569C29.7014 42.4669 28.3795 43.7089 28.936 44.9509L33.3053 71.6962" stroke="black" stroke-width="2" stroke-miterlimit="10" stroke-linecap="round" stroke-linejoin="round"/>
</svg>
