<svg width="41" height="40" viewBox="0 0 41 40" fill="none" xmlns="http://www.w3.org/2000/svg">
<path d="M40.342 11.4337C40.3063 11.2582 40.2743 11.0806 40.2505 10.9453C40.1468 10.3549 39.8401 9.16782 38.9516 7.84875C37.8268 6.17951 36.1715 4.8871 34.0312 4.00717C32.0491 3.19285 29.9899 3.11617 27.9115 3.78042C26.2381 4.3151 24.9297 5.2102 24.1269 5.86707C23.6914 6.22339 23.1711 6.47802 22.6221 6.6039L19.1134 7.40715C18.9884 7.43585 18.8633 7.47357 18.7411 7.52032L18.2237 6.99548C16.9497 5.62228 15.5011 4.63083 13.7949 3.96453C12.3032 3.38228 10.552 3.2072 8.86431 3.47249C5.8063 3.95223 3.01235 6.00279 1.57191 8.82339C0.69444 10.5414 0.345504 12.4181 0.56282 14.2502C0.779727 16.0805 1.55633 17.8178 2.80815 19.2743C4.36545 21.0858 5.56725 22.2294 7.23074 23.8121C7.33448 23.9105 7.43945 24.0109 7.54688 24.113C7.71417 24.2721 7.88105 24.4316 8.04835 24.5907L7.64364 24.9954C7.23443 25.4046 7.01179 25.9492 7.01753 26.5281C7.02286 27.0915 7.25083 27.627 7.65964 28.0358L7.71007 28.0862C8.11354 28.4897 8.65027 28.7115 9.22226 28.7115C9.35429 28.7115 9.48591 28.6992 9.61548 28.6755C9.49165 29.3799 9.71389 30.0917 10.2219 30.5997C10.6348 31.0126 11.1834 31.2398 11.7673 31.2398C11.8821 31.2398 11.9969 31.2308 12.1101 31.2131C11.9367 31.927 12.1466 32.679 12.6719 33.201C13.072 33.5987 13.6051 33.8177 14.1726 33.8177C14.3723 33.8177 14.5695 33.7902 14.7606 33.7356C14.6753 34.3728 14.8893 35.0129 15.3457 35.4693L15.5462 35.6698C15.9353 36.0589 16.4532 36.2729 17.0047 36.2729C17.5561 36.2729 18.0744 36.0585 18.4631 35.6698L18.8272 35.3057L19.9975 36.4759C20.4223 36.9007 20.9967 37.1348 21.6142 37.1348C21.6458 37.1348 21.6774 37.1344 21.7085 37.1332C22.3523 37.109 22.9657 36.8367 23.4356 36.3668L23.698 36.1044C24.0305 35.7719 24.2675 35.3602 24.3836 34.9137C24.4861 34.5196 24.4914 34.1137 24.4 33.7311C24.5546 33.7594 24.7128 33.7738 24.8715 33.7738C25.6067 33.7738 26.3357 33.4663 26.8712 32.9308C27.5609 32.2411 27.8541 31.2677 27.6527 30.3631C27.8377 30.4041 28.0283 30.4251 28.2202 30.4251C28.9554 30.4251 29.6844 30.1175 30.2199 29.582C30.8912 28.9108 31.1893 27.9591 31.0134 27.0718C31.195 27.1141 31.3824 27.135 31.5722 27.135C32.2681 27.135 32.9577 26.8443 33.4645 26.3375L33.6732 26.1287C34.0558 25.7462 34.3137 25.2693 34.4191 24.7502C34.5187 24.259 34.4757 23.7653 34.2944 23.3196L37.6489 19.9652C38.5378 19.0762 39.2373 18.0417 39.7286 16.8899C40.2222 15.732 40.4814 14.5105 40.499 13.2591C40.5113 12.4026 40.4059 11.7477 40.342 11.4337ZM24.7813 20.7934C24.7079 20.8668 24.6677 20.964 24.6677 21.0677C24.6677 21.1715 24.7079 21.2687 24.7813 21.342L29.7939 26.3547C30.4988 27.0595 30.4438 28.2609 29.6721 29.033C29.2802 29.425 28.7512 29.6493 28.221 29.6493C27.7487 29.6493 27.3128 29.4738 26.9938 29.1548L21.9808 24.1421C21.8295 23.9908 21.5835 23.9908 21.4322 24.1421C21.3588 24.2155 21.3186 24.3127 21.3186 24.4165C21.3186 24.5202 21.3588 24.6174 21.4322 24.6908L26.4448 29.7034C27.1496 30.4082 27.0947 31.6084 26.323 32.3805C25.931 32.7725 25.4021 32.9959 24.8719 32.9959C24.3996 32.9959 23.9637 32.8217 23.6447 32.5027L18.6321 27.4905C18.5587 27.4171 18.4615 27.3773 18.3578 27.3773C18.254 27.3773 18.1568 27.4179 18.0834 27.4913C18.01 27.5647 17.9699 27.6619 17.9699 27.7656C17.9699 27.8693 18.01 27.9665 18.0834 28.0399L23.2584 33.2149C23.8739 33.8304 23.8247 34.8804 23.1494 35.5558L22.887 35.8182C22.5561 36.1491 22.1272 36.341 21.6794 36.3578C21.2423 36.3742 20.8401 36.2213 20.5461 35.9273L19.3759 34.757L19.6899 34.4429C20.0795 34.0534 20.2943 33.5351 20.2943 32.9845C20.2943 32.4334 20.0799 31.9155 19.6899 31.526L19.4894 31.3255C19.0491 30.8851 18.4291 30.6686 17.8104 30.7346C18.0428 29.9896 17.8436 29.1695 17.2855 28.6152C16.8136 28.1461 16.151 27.928 15.4925 28.0186C15.5531 27.7976 15.5786 27.568 15.5679 27.3347C15.5454 26.8377 15.3506 26.3588 15.0201 25.9869C14.3936 25.282 13.3833 25.061 12.5247 25.4276C12.5296 24.8544 12.3057 24.3021 11.8998 23.8961L11.8333 23.8297C11.4299 23.4262 10.8931 23.2044 10.3211 23.2044C9.74915 23.2044 9.21201 23.4266 8.80895 23.8297L8.59656 24.0421C8.42516 23.8785 8.25336 23.7149 8.08156 23.5513C7.97372 23.4488 7.86793 23.3479 7.76378 23.2491C6.11751 21.6828 4.92801 20.5511 3.39613 18.7691C1.06224 16.0531 0.628015 12.3775 2.26281 9.17602C3.59213 6.57274 6.16794 4.68085 8.98445 4.23843C10.5389 3.99446 12.1466 4.15355 13.5124 4.687C15.1095 5.31066 16.4659 6.23979 17.6591 7.5277L18.0359 7.91108C17.9342 7.98857 17.8378 8.07263 17.7484 8.1616L12.5583 13.3522C12.1728 13.7376 11.9223 14.2666 11.8526 14.8422C11.7833 15.4171 11.8998 15.9899 12.1815 16.4561C12.5382 17.047 13.1024 17.4463 13.7699 17.58C14.403 17.7071 15.073 17.5882 15.6565 17.245C16.3966 16.81 16.9595 16.1822 17.5049 15.5741C17.7206 15.3339 17.9432 15.0854 18.1687 14.8599L20.3657 12.6633C20.4612 12.5678 20.6113 12.5539 20.7228 12.6305C21.3998 13.0959 22.7726 13.9353 24.3606 14.3305C24.3975 14.3395 24.4361 14.349 24.4836 14.36L29.643 19.5195L29.6496 19.5129L33.2394 23.1027C33.551 23.4143 33.713 23.8408 33.6958 24.3033C33.6777 24.7769 33.4752 25.2304 33.1254 25.5801L32.9167 25.7888C32.5666 26.139 32.1131 26.3416 31.6395 26.3596C31.1774 26.3772 30.7509 26.2153 30.4393 25.9032L25.3299 20.7934C25.1786 20.6421 24.9326 20.6421 24.7813 20.7934ZM17.9145 35.1211C17.4126 35.623 16.5963 35.623 16.0944 35.1211L15.9095 34.9362C15.6569 34.6836 15.5138 34.3417 15.5171 33.9981C15.5203 33.659 15.654 33.3404 15.8939 33.1005L17.1051 31.8893C17.3548 31.6392 17.6923 31.4965 18.0318 31.4965C18.0355 31.4965 18.0396 31.4965 18.0433 31.4965C18.3824 31.4997 18.7009 31.6334 18.9408 31.8733L19.1413 32.0738C19.6432 32.5757 19.6432 33.392 19.1413 33.8939L17.9145 35.1211ZM8.25828 27.5376L8.20498 27.4843C7.94338 27.2227 7.7929 26.8672 7.79249 26.5097C7.79208 26.1447 7.93354 25.802 8.19145 25.5436L9.35716 24.3779C9.61425 24.1208 9.95622 23.9794 10.3207 23.9794C10.6853 23.9794 11.0272 24.1208 11.2843 24.3779L11.3507 24.4443C11.8821 24.9757 11.8821 25.8401 11.3507 26.3715L10.185 27.5372C9.65444 28.0686 8.78968 28.0686 8.25828 27.5376ZM10.7701 28.0571L12.3877 26.4396C12.6534 26.1739 13.0077 26.0275 13.3845 26.0275C13.7613 26.0275 14.1156 26.1739 14.3813 26.4396C14.6482 26.7065 14.7946 27.0612 14.7942 27.4388C14.7938 27.8091 14.638 28.1764 14.3673 28.4475L12.7641 30.0511C12.498 30.3172 12.1437 30.464 11.7673 30.464C11.3909 30.464 11.0367 30.3172 10.7705 30.0511C10.2207 29.5013 10.2207 28.607 10.7701 28.0571ZM13.2028 30.7465L14.8155 29.1437C15.0738 28.887 15.4182 28.7456 15.7848 28.7456C16.1514 28.7456 16.4958 28.887 16.7541 29.1437C17.0124 29.4004 17.1547 29.7424 17.1547 30.1065C17.1547 30.4706 17.0124 30.8125 16.7541 31.0692L15.1415 32.6716C14.6068 33.2026 13.7371 33.2026 13.2028 32.6716C12.9445 32.4149 12.8022 32.073 12.8022 31.7089C12.8022 31.3452 12.9445 31.0032 13.2028 30.7465ZM28.3978 17.177L25.7629 14.5421C26.1549 14.5605 26.5354 14.5425 26.8966 14.4876C27.7306 14.3605 28.4958 14.0373 29.1707 13.5269C29.2564 13.4621 29.3101 13.3674 29.3216 13.2599C29.333 13.1537 29.2994 13.0463 29.2297 12.9651C29.0965 12.8101 28.8644 12.7855 28.7012 12.9089C26.0368 14.9259 22.5413 12.9385 21.162 11.9905C20.7425 11.7022 20.1766 11.7539 19.8166 12.1139L17.6201 14.3104C17.3798 14.5507 17.1494 14.8078 16.9267 15.0563C16.3986 15.6451 15.9 16.2015 15.2637 16.5754C14.3792 17.0954 13.3398 16.8711 12.8457 16.0539C12.4459 15.3921 12.5607 14.4461 13.1069 13.9L18.2971 8.70982C18.5693 8.43756 18.9113 8.24853 19.2865 8.16242L22.7951 7.35917C23.4602 7.20705 24.0904 6.8983 24.6181 6.46695C25.961 5.36806 29.5381 2.99849 33.7364 4.72432C38.3705 6.63014 39.3091 10.0707 39.4866 11.0798C39.5112 11.2196 39.5441 11.4037 39.5818 11.5886C39.6396 11.872 39.7347 12.4645 39.7236 13.2476C39.6912 15.5664 38.7597 17.7571 37.1011 19.4157L33.8733 22.6435C33.8454 22.6123 33.8172 22.5824 33.788 22.5537L28.4043 17.17L28.3978 17.177Z" fill="#1A1A1A"/>
</svg>
