<svg width="41" height="40" viewBox="0 0 41 40" fill="none" xmlns="http://www.w3.org/2000/svg">
<path d="M26.8445 8.85379C26.8445 8.39004 26.4735 8.01904 26.0097 8.01904H4.24452H3.34795C2.63687 8.01904 2.23496 8.85379 2.6987 9.37937C3.47161 10.3069 4.24452 11.6363 4.24452 13.1512V18.2524H26.8754V8.85379H26.8445Z" stroke="black" stroke-miterlimit="10" stroke-linecap="round" stroke-linejoin="round"/>
<path d="M4.24414 18.2529V33.1547C4.24414 35.0715 5.78996 36.6173 7.70678 36.6173H23.3814C25.2983 36.6173 26.8441 35.0715 26.8441 33.1547V18.2529H4.24414Z" fill="#FFFC29" stroke="black" stroke-miterlimit="10" stroke-linecap="round" stroke-linejoin="round"/>
<path d="M38.5013 26.0125C38.5013 21.4369 35.6261 17.5723 31.576 16.0574V4H24.187V16.0574C20.137 17.5723 17.2617 21.4369 17.2617 26.0125C17.2617 26.2289 17.2617 26.4454 17.2926 26.6618H38.5013C38.5013 26.4454 38.5013 26.2289 38.5013 26.0125Z" fill="#FFED00" stroke="black" stroke-miterlimit="10" stroke-linecap="round" stroke-linejoin="round"/>
<path d="M17.293 26.6304C17.633 32.1953 22.2396 36.6164 27.8973 36.6164C33.555 36.6164 38.1616 32.1953 38.5017 26.6304H17.293Z" fill="#FFFC29" stroke="black" stroke-miterlimit="10" stroke-linecap="round" stroke-linejoin="round"/>
<path d="M10.6129 22.1169C10.7324 22.1169 10.8293 22.02 10.8293 21.9005C10.8293 21.781 10.7324 21.6841 10.6129 21.6841C10.4934 21.6841 10.3965 21.781 10.3965 21.9005C10.3965 22.02 10.4934 22.1169 10.6129 22.1169Z" stroke="black" stroke-miterlimit="10" stroke-linecap="round" stroke-linejoin="round"/>
<path d="M25.361 29.9695C25.4805 29.9695 25.5774 29.8726 25.5774 29.753C25.5774 29.6335 25.4805 29.5366 25.361 29.5366C25.2414 29.5366 25.1445 29.6335 25.1445 29.753C25.1445 29.8726 25.2414 29.9695 25.361 29.9695Z" fill="#EFCF7E" stroke="black" stroke-miterlimit="10" stroke-linecap="round" stroke-linejoin="round"/>
<path d="M29.9977 32.6594C30.1172 32.6594 30.2141 32.5625 30.2141 32.443C30.2141 32.3235 30.1172 32.2266 29.9977 32.2266C29.8781 32.2266 29.7812 32.3235 29.7812 32.443C29.7812 32.5625 29.8781 32.6594 29.9977 32.6594Z" fill="#EFCF7E" stroke="black" stroke-miterlimit="10" stroke-linecap="round" stroke-linejoin="round"/>
<path d="M12.8395 27.0632C12.959 27.0632 13.0559 26.9663 13.0559 26.8468C13.0559 26.7273 12.959 26.6304 12.8395 26.6304C12.7199 26.6304 12.623 26.7273 12.623 26.8468C12.623 26.9663 12.7199 27.0632 12.8395 27.0632Z" stroke="black" stroke-miterlimit="10" stroke-linecap="round" stroke-linejoin="round"/>
<path d="M8.97423 30.1862C9.09375 30.1862 9.19064 30.0894 9.19064 29.9698C9.19064 29.8503 9.09375 29.7534 8.97423 29.7534C8.8547 29.7534 8.75781 29.8503 8.75781 29.9698C8.75781 30.0894 8.8547 30.1862 8.97423 30.1862Z" stroke="black" stroke-miterlimit="10" stroke-linecap="round" stroke-linejoin="round"/>
<path d="M31.6056 13.8936H29.4414" stroke="black" stroke-miterlimit="10" stroke-linecap="round" stroke-linejoin="round"/>
<path d="M31.6056 10.9561H29.4414" stroke="black" stroke-miterlimit="10" stroke-linecap="round" stroke-linejoin="round"/>
<path d="M31.6056 8.01904H29.4414" stroke="black" stroke-miterlimit="10" stroke-linecap="round" stroke-linejoin="round"/>
</svg>
