<svg width="57" height="42" viewBox="0 0 57 42" fill="none" xmlns="http://www.w3.org/2000/svg">
<path d="M20.9473 41C9.9056 41 0.947266 32.0417 0.947266 21C0.947266 9.95833 9.9056 1 20.9473 1C31.9889 1 40.9473 9.95833 40.9473 21C40.9473 32.0417 31.9889 41 20.9473 41Z" fill="#FFFC29" stroke="black" stroke-miterlimit="10" stroke-linecap="round" stroke-linejoin="round"/>
<path d="M20.9479 35.7913C12.8229 35.7913 6.15625 29.1247 6.15625 20.9997C6.15625 12.8747 12.8229 6.20801 20.9479 6.20801C29.0729 6.20801 35.7396 12.8747 35.7396 20.9997C35.7396 29.1247 29.0729 35.7913 20.9479 35.7913Z" fill="#FFED00" stroke="black" stroke-miterlimit="10" stroke-linecap="round" stroke-linejoin="round"/>
<path d="M20.9466 30.5837C15.6341 30.5837 11.3633 26.3128 11.3633 21.0003C11.3633 15.6878 15.6341 11.417 20.9466 11.417C26.2591 11.417 30.53 15.6878 30.53 21.0003C30.53 26.3128 26.2591 30.5837 20.9466 30.5837Z" fill="#FFFC29" stroke="black" stroke-miterlimit="10" stroke-linecap="round" stroke-linejoin="round"/>
<path d="M20.9473 25.3755C18.5514 25.3755 16.5723 23.3963 16.5723 21.0005C16.5723 18.6047 18.5514 16.6255 20.9473 16.6255C23.3431 16.6255 25.3223 18.6047 25.3223 21.0005C25.3223 23.3963 23.3431 25.3755 20.9473 25.3755Z" fill="#FFED00" stroke="black" stroke-miterlimit="10" stroke-linecap="round" stroke-linejoin="round"/>
<path d="M20.9473 21.0005H53.2389" stroke="black" stroke-miterlimit="10" stroke-linecap="round" stroke-linejoin="round"/>
<path d="M48.8639 16.8335H56.0514L53.2389 21.0002H45.9473L48.8639 16.8335Z" fill="#DC2F34" stroke="black" stroke-miterlimit="10" stroke-linecap="round" stroke-linejoin="round"/>
<path d="M48.8639 25.063H56.0514L53.2389 21.0005H45.9473L48.8639 25.063Z" fill="#DC2F34" stroke="black" stroke-miterlimit="10" stroke-linecap="round" stroke-linejoin="round"/>
</svg>
