<svg width="1396" height="87" viewBox="0 0 1396 87" fill="none" xmlns="http://www.w3.org/2000/svg">
<path opacity="0.5" d="M0.576563 1.94999V0.949993H-0.423437V1.94999H0.576563ZM14.3266 58.16V57.16H13.3266V58.16H14.3266ZM14.3266 85V86H15.3266V85H14.3266ZM0.576563 85H-0.423437V86H0.576563V85ZM14.3266 46.28H13.3266V47.28H14.3266V46.28ZM14.3266 13.83V12.83H13.3266V13.83H14.3266ZM0.576563 2.94999H35.8866V0.949993H0.576563V2.94999ZM35.8866 2.94999C45.1072 2.94999 52.5214 5.56372 57.6177 10.1333C62.7021 14.6921 65.5766 21.2833 65.5766 29.45H67.5766C67.5766 20.7867 64.511 13.6278 58.9529 8.64421C53.4067 3.67127 45.4759 0.949993 35.8866 0.949993V2.94999ZM65.5766 29.45C65.5766 37.4164 62.9084 44.3147 57.7216 49.2251C52.5316 54.1384 44.7149 57.16 34.2366 57.16V59.16C45.0983 59.16 53.4515 56.0216 59.0966 50.6774C64.7447 45.3303 67.5766 37.8736 67.5766 29.45H65.5766ZM34.2366 57.16H14.3266V59.16H34.2366V57.16ZM13.3266 58.16V85H15.3266V58.16H13.3266ZM14.3266 84H0.576563V86H14.3266V84ZM1.57656 85V1.94999H-0.423437V85H1.57656ZM14.3266 47.28H33.9066V45.28H14.3266V47.28ZM33.9066 47.28C39.8116 47.28 44.663 45.6033 48.0505 42.5545C51.4487 39.4962 53.2766 35.1431 53.2766 30H51.2766C51.2766 34.6469 49.6394 38.4338 46.7126 41.068C43.7751 43.7117 39.4416 45.28 33.9066 45.28V47.28ZM53.2766 30C53.2766 24.881 51.6022 20.5515 48.3075 17.5091C45.022 14.4752 40.2435 12.83 34.2366 12.83V14.83C39.8896 14.83 44.1312 16.3748 46.9506 18.9784C49.761 21.5735 51.2766 25.329 51.2766 30H53.2766ZM34.2366 12.83H14.3266V14.83H34.2366V12.83ZM13.3266 13.83V46.28H15.3266V13.83H13.3266ZM169.918 55.74L169.646 54.7779L168.222 55.1811L169.127 56.3514L169.918 55.74ZM175.528 63L176.321 62.3903L176.319 62.3885L175.528 63ZM192.028 73.67H193.028V72.67H192.028V73.67ZM192.028 85.55V86.55H193.028V85.55H192.028ZM165.078 69.82L164.293 70.4387L164.295 70.4414L165.078 69.82ZM155.288 57.39L156.074 56.7713L155.773 56.39H155.288V57.39ZM138.678 57.39V56.39H137.678V57.39H138.678ZM138.678 85V86H139.678V85H138.678ZM124.928 85H123.928V86H124.928V85ZM124.928 1.94999V0.949993H123.928V1.94999H124.928ZM138.678 13.83V12.83H137.678V13.83H138.678ZM138.678 45.51H137.678V46.51H138.678V45.51ZM169.127 56.3514L174.737 63.6115L176.319 62.3885L170.709 55.1286L169.127 56.3514ZM174.736 63.6097C178.04 67.9053 180.576 70.6956 183.193 72.3917C185.867 74.1244 188.551 74.67 192.028 74.67V72.67C188.796 72.67 186.53 72.1706 184.281 70.7133C181.975 69.2194 179.616 66.6747 176.321 62.3903L174.736 63.6097ZM191.028 73.67V85.55H193.028V73.67H191.028ZM192.028 84.55C186.005 84.55 182.004 83.8163 178.279 81.6096C174.507 79.3753 170.921 75.5774 165.862 69.1986L164.295 70.4414C169.356 76.8226 173.139 80.8897 177.26 83.3304C181.427 85.7987 185.841 86.55 192.028 86.55V84.55ZM165.864 69.2013L156.074 56.7713L154.503 58.0087L164.293 70.4387L165.864 69.2013ZM155.288 56.39H138.678V58.39H155.288V56.39ZM137.678 57.39V85H139.678V57.39H137.678ZM138.678 84H124.928V86H138.678V84ZM125.928 85V1.94999H123.928V85H125.928ZM124.928 2.94999H159.138V0.949993H124.928V2.94999ZM159.138 2.94999C168.364 2.94999 175.78 5.51163 180.875 10.0143C185.956 14.5047 188.828 21.0111 188.828 29.12H190.828C190.828 20.5089 187.76 13.4303 182.199 8.51567C176.652 3.61336 168.722 0.949993 159.138 0.949993V2.94999ZM188.828 29.12C188.828 35.3801 187.198 40.8852 184.014 45.2659C180.834 49.6424 176.056 52.9615 169.646 54.7779L170.191 56.7021C176.98 54.7785 182.158 51.2226 185.632 46.4416C189.104 41.6648 190.828 35.7299 190.828 29.12H188.828ZM137.678 13.83V45.51H139.678V13.83H137.678ZM138.678 46.51H157.158V44.51H138.678V46.51ZM157.158 46.51C163.042 46.51 167.89 44.9825 171.284 42.0757C174.697 39.1525 176.528 34.9271 176.528 29.78H174.528C174.528 34.4229 172.895 38.0625 169.983 40.5568C167.051 43.0675 162.715 44.51 157.158 44.51V46.51ZM176.528 29.78C176.528 24.6597 174.853 20.381 171.552 17.3924C168.264 14.4154 163.486 12.83 157.488 12.83V14.83C163.15 14.83 167.393 16.3246 170.209 18.875C173.014 21.414 174.528 25.1103 174.528 29.78H176.528ZM157.488 12.83H138.678V14.83H157.488V12.83ZM289.747 85.65C264.644 85.65 246.417 67.9229 246.417 43.42H244.417C244.417 69.0771 263.59 87.65 289.747 87.65V85.65ZM246.417 43.42C246.417 18.9205 264.64 1.3 289.747 1.3V-0.700005C263.593 -0.700005 244.417 17.7595 244.417 43.42H246.417ZM289.747 1.3C314.741 1.3 332.967 18.9188 332.967 43.42H334.967C334.967 17.7612 315.792 -0.700005 289.747 -0.700005V1.3ZM332.967 43.42C332.967 67.9245 314.738 85.65 289.747 85.65V87.65C315.796 87.65 334.967 69.0755 334.967 43.42H332.967ZM289.747 75.33C298.898 75.33 306.753 72.1057 312.321 66.4663C317.888 60.8275 321.107 52.8379 321.107 43.42H319.107C319.107 52.3721 316.055 59.8375 310.898 65.0612C305.741 70.2843 298.416 73.33 289.747 73.33V75.33ZM321.107 43.42C321.107 34.1143 317.945 26.1525 312.405 20.513C306.864 14.8718 299.008 11.62 289.747 11.62V13.62C298.526 13.62 305.85 16.6932 310.978 21.9145C316.109 27.1375 319.107 34.5757 319.107 43.42H321.107ZM289.747 11.62C280.491 11.62 272.608 14.8131 267.037 20.4269C261.467 26.0402 258.277 34.0042 258.277 43.42H260.277C260.277 34.4658 263.302 27.0298 268.457 21.8356C273.611 16.6418 280.963 13.62 289.747 13.62V11.62ZM258.277 43.42C258.277 52.9529 261.581 60.9441 267.206 66.5543C272.828 72.1629 280.708 75.33 289.747 75.33V73.33C281.185 73.33 273.83 70.3371 268.618 65.1382C263.407 59.9408 260.277 52.4771 260.277 43.42H258.277ZM392.215 85H391.215V86H392.215V85ZM392.215 1.94999V0.949993H391.215V1.94999H392.215ZM405.965 73.12H404.965V74.12H405.965V73.12ZM405.965 13.72V12.72H404.965V13.72H405.965ZM393.215 85V1.94999H391.215V85H393.215ZM392.215 2.94999H422.355V0.949993H392.215V2.94999ZM422.355 2.94999C435.24 2.94999 446.009 6.92682 453.546 13.9432C461.076 20.9526 465.465 31.0715 465.465 43.53H467.465C467.465 30.5785 462.889 19.9074 454.909 12.4793C446.937 5.05817 435.65 0.949993 422.355 0.949993V2.94999ZM465.465 43.53C465.465 55.7085 461.08 65.8031 453.544 72.8575C446.003 79.9174 435.233 84 422.355 84V86C435.657 86 446.942 81.7776 454.911 74.3175C462.886 66.8519 467.465 56.2115 467.465 43.53H465.465ZM422.355 84H392.215V86H422.355V84ZM405.965 74.12H421.585V72.12H405.965V74.12ZM421.585 74.12C431.032 74.12 438.969 71.193 444.551 65.8539C450.139 60.5101 453.275 52.8372 453.275 43.53H451.275C451.275 52.3728 448.307 59.4949 443.169 64.4086C438.026 69.327 430.619 72.12 421.585 72.12V74.12ZM453.275 43.53C453.275 33.9551 450.143 26.2237 444.55 20.8889C438.964 15.56 431.024 12.72 421.585 12.72V14.72C430.626 14.72 438.032 17.435 443.17 22.3361C448.302 27.2313 451.275 34.4049 451.275 43.53H453.275ZM421.585 12.72H405.965V14.72H421.585V12.72ZM404.965 13.72V73.12H406.965V13.72H404.965ZM524.731 1.94999V0.949993H523.731V1.94999H524.731ZM538.481 1.94999H539.481V0.949993H538.481V1.94999ZM582.481 1.94999V0.949993H581.481V1.94999H582.481ZM596.231 1.94999H597.231V0.949993H596.231V1.94999ZM560.481 85.65C549.695 85.65 541.025 82.8859 535.062 77.571C529.118 72.272 525.731 64.3188 525.731 53.65H523.731C523.731 64.7612 527.274 73.308 533.732 79.064C540.171 84.8041 549.376 87.65 560.481 87.65V85.65ZM525.731 53.65V1.94999H523.731V53.65H525.731ZM524.731 2.94999H538.481V0.949993H524.731V2.94999ZM537.481 1.94999V52.88H539.481V1.94999H537.481ZM537.481 52.88C537.481 60.0478 539.488 65.7546 543.458 69.6661C547.426 73.5753 553.211 75.55 560.481 75.55V73.55C553.561 73.55 548.346 71.6747 544.861 68.2414C541.379 64.8104 539.481 59.6822 539.481 52.88H537.481ZM560.481 75.55C567.751 75.55 573.536 73.5753 577.504 69.6661C581.474 65.7546 583.481 60.0478 583.481 52.88H581.481C581.481 59.6822 579.583 64.8104 576.1 68.2414C572.616 71.6747 567.401 73.55 560.481 73.55V75.55ZM583.481 52.88V1.94999H581.481V52.88H583.481ZM582.481 2.94999H596.231V0.949993H582.481V2.94999ZM595.231 1.94999V53.65H597.231V1.94999H595.231ZM595.231 53.65C595.231 64.3212 591.87 72.2738 585.94 77.5717C579.992 82.8854 571.322 85.65 560.481 85.65V87.65C571.639 87.65 580.845 84.8046 587.272 79.0633C593.717 73.3062 597.231 64.7588 597.231 53.65H595.231ZM732.885 17.24L733.467 18.0532L734.254 17.4901L733.717 16.6853L732.885 17.24ZM722.435 24.72L721.611 25.286L722.188 26.1267L723.017 25.5331L722.435 24.72ZM723.095 61.57L723.658 60.7432L722.812 60.1678L722.256 61.0263L723.095 61.57ZM733.765 68.83L734.61 69.3646L735.127 68.5473L734.328 68.0032L733.765 68.83ZM698.345 85.65C673.369 85.65 655.565 67.7193 655.565 43.53H653.565C653.565 68.8407 672.281 87.65 698.345 87.65V85.65ZM655.565 43.53C655.565 19.229 673.371 1.3 698.345 1.3V-0.700005C672.28 -0.700005 653.565 18.111 653.565 43.53H655.565ZM698.345 1.3C712.58 1.3 725.444 7.88129 732.053 17.7947L733.717 16.6853C726.686 6.1387 713.151 -0.700005 698.345 -0.700005V1.3ZM732.303 16.4268L721.853 23.9068L723.017 25.5331L733.467 18.0532L732.303 16.4268ZM723.26 24.154C718.004 16.4996 708.559 11.51 698.345 11.51V13.51C707.932 13.51 716.746 18.2004 721.611 25.286L723.26 24.154ZM698.345 11.51C689.3 11.51 681.552 14.7374 676.067 20.3939C670.584 26.0484 667.425 34.0639 667.425 43.53H669.425C669.425 34.5161 672.426 27.0216 677.503 21.7861C682.578 16.5526 689.791 13.51 698.345 13.51V11.51ZM667.425 43.53C667.425 52.8351 670.587 60.8211 676.066 66.4865C681.549 72.1543 689.295 75.44 698.345 75.44V73.44C689.796 73.44 682.582 70.3457 677.504 65.096C672.424 59.8439 669.425 52.3749 669.425 43.53H667.425ZM698.345 75.44C709.003 75.44 718.679 70.2257 723.935 62.1137L722.256 61.0263C717.392 68.5343 708.368 73.44 698.345 73.44V75.44ZM722.533 62.3968L733.203 69.6568L734.328 68.0032L723.658 60.7432L722.533 62.3968ZM732.92 68.2954C726.311 78.7418 712.908 85.65 698.345 85.65V87.65C713.483 87.65 727.579 80.4782 734.61 69.3646L732.92 68.2954ZM856.394 1.94999H857.394V0.949993H856.394V1.94999ZM856.394 14.05V15.05H857.394V14.05H856.394ZM827.024 14.05V13.05H826.024V14.05H827.024ZM827.024 85V86H828.024V85H827.024ZM813.274 85H812.274V86H813.274V85ZM813.274 14.05H814.274V13.05H813.274V14.05ZM783.794 14.05H782.794V15.05H783.794V14.05ZM783.794 1.94999V0.949993H782.794V1.94999H783.794ZM855.394 1.94999V14.05H857.394V1.94999H855.394ZM856.394 13.05H827.024V15.05H856.394V13.05ZM826.024 14.05V85H828.024V14.05H826.024ZM827.024 84H813.274V86H827.024V84ZM814.274 85V14.05H812.274V85H814.274ZM813.274 13.05H783.794V15.05H813.274V13.05ZM784.794 14.05V1.94999H782.794V14.05H784.794ZM783.794 2.94999H856.394V0.949993H783.794V2.94999ZM987.345 85H986.345V86H987.345V85ZM987.345 1.94999V0.949993H986.345V1.94999H987.345ZM1001.1 1.94999H1002.1V0.949993H1001.1V1.94999ZM1001.1 85V86H1002.1V85H1001.1ZM988.345 85V1.94999H986.345V85H988.345ZM987.345 2.94999H1001.1V0.949993H987.345V2.94999ZM1000.1 1.94999V85H1002.1V1.94999H1000.1ZM1001.1 84H987.345V86H1001.1V84ZM1120.74 1.94999V0.949993H1119.74V1.94999H1120.74ZM1134.16 1.94999H1135.16V0.949993H1134.16V1.94999ZM1134.16 85V86H1135.16V85H1134.16ZM1123.16 85L1122.36 85.604L1122.66 86H1123.16V85ZM1077.73 25.05L1078.53 24.446L1076.73 22.0747V25.05H1077.73ZM1077.73 85V86H1078.73V85H1077.73ZM1064.31 85H1063.31V86H1064.31V85ZM1064.31 1.94999V0.949993H1063.31V1.94999H1064.31ZM1075.31 1.94999L1076.1 1.34035L1075.8 0.949993H1075.31V1.94999ZM1120.74 61.02L1119.95 61.6296L1121.74 63.9606V61.02H1120.74ZM1120.74 2.94999H1134.16V0.949993H1120.74V2.94999ZM1133.16 1.94999V85H1135.16V1.94999H1133.16ZM1134.16 84H1123.16V86H1134.16V84ZM1123.96 84.396L1078.53 24.446L1076.93 25.654L1122.36 85.604L1123.96 84.396ZM1076.73 25.05V85H1078.73V25.05H1076.73ZM1077.73 84H1064.31V86H1077.73V84ZM1065.31 85V1.94999H1063.31V85H1065.31ZM1064.31 2.94999H1075.31V0.949993H1064.31V2.94999ZM1074.52 2.55964L1119.95 61.6296L1121.53 60.4104L1076.1 1.34035L1074.52 2.55964ZM1121.74 61.02V1.94999H1119.74V61.02H1121.74ZM1254.03 13.83V14.83H1255.03V13.83H1254.03ZM1210.58 13.83V12.83H1209.58V13.83H1210.58ZM1210.58 38.14H1209.58V39.14H1210.58V38.14ZM1247.65 38.14H1248.65V37.14H1247.65V38.14ZM1247.65 50.02V51.02H1248.65V50.02H1247.65ZM1210.58 50.02V49.02H1209.58V50.02H1210.58ZM1210.58 85V86H1211.58V85H1210.58ZM1196.83 85H1195.83V86H1196.83V85ZM1196.83 1.94999V0.949993H1195.83V1.94999H1196.83ZM1254.03 1.94999H1255.03V0.949993H1254.03V1.94999ZM1254.03 12.83H1210.58V14.83H1254.03V12.83ZM1209.58 13.83V38.14H1211.58V13.83H1209.58ZM1210.58 39.14H1247.65V37.14H1210.58V39.14ZM1246.65 38.14V50.02H1248.65V38.14H1246.65ZM1247.65 49.02H1210.58V51.02H1247.65V49.02ZM1209.58 50.02V85H1211.58V50.02H1209.58ZM1210.58 84H1196.83V86H1210.58V84ZM1197.83 85V1.94999H1195.83V85H1197.83ZM1196.83 2.94999H1254.03V0.949993H1196.83V2.94999ZM1253.03 1.94999V13.83H1255.03V1.94999H1253.03ZM1351.66 85.65C1326.55 85.65 1308.32 67.9229 1308.32 43.42H1306.32C1306.32 69.0771 1325.5 87.65 1351.66 87.65V85.65ZM1308.32 43.42C1308.32 18.9205 1326.55 1.3 1351.66 1.3V-0.700005C1325.5 -0.700005 1306.32 17.7595 1306.32 43.42H1308.32ZM1351.66 1.3C1376.65 1.3 1394.88 18.9188 1394.88 43.42H1396.88C1396.88 17.7612 1377.7 -0.700005 1351.66 -0.700005V1.3ZM1394.88 43.42C1394.88 67.9245 1376.65 85.65 1351.66 85.65V87.65C1377.7 87.65 1396.88 69.0755 1396.88 43.42H1394.88ZM1351.66 75.33C1360.81 75.33 1368.66 72.1057 1374.23 66.4663C1379.8 60.8275 1383.02 52.8379 1383.02 43.42H1381.02C1381.02 52.3721 1377.96 59.8375 1372.81 65.0612C1367.65 70.2843 1360.32 73.33 1351.66 73.33V75.33ZM1383.02 43.42C1383.02 34.1143 1379.85 26.1525 1374.31 20.513C1368.77 14.8718 1360.92 11.62 1351.66 11.62V13.62C1360.43 13.62 1367.76 16.6932 1372.89 21.9145C1378.02 27.1375 1381.02 34.5757 1381.02 43.42H1383.02ZM1351.66 11.62C1342.4 11.62 1334.52 14.8131 1328.95 20.4269C1323.37 26.0402 1320.19 34.0042 1320.19 43.42H1322.19C1322.19 34.4658 1325.21 27.0298 1330.36 21.8356C1335.52 16.6418 1342.87 13.62 1351.66 13.62V11.62ZM1320.19 43.42C1320.19 52.9529 1323.49 60.9441 1329.11 66.5543C1334.74 72.1629 1342.62 75.33 1351.66 75.33V73.33C1343.09 73.33 1335.74 70.3371 1330.53 65.1382C1325.32 59.9408 1322.19 52.4771 1322.19 43.42H1320.19Z" fill="black"/>
</svg>
