<svg width="36" height="20" viewBox="0 0 36 20" fill="none" xmlns="http://www.w3.org/2000/svg">
<rect width="36" height="20" rx="4" fill="#003986"/>
<path d="M17.6582 11.3535V12.1152H14.123V14.8398H13.2051V12.1152H9.67969V11.3535H17.6582ZM10.1484 10.0059C11.8086 9.7959 13.1465 8.86816 13.2051 7.88672H10.4316V7.13477H13.2051V6.08008H14.123V7.13477H16.8965V7.88672H14.1328C14.1816 8.8584 15.5049 9.7959 17.1699 10.0059L16.8379 10.748C15.4316 10.5527 14.2354 9.89355 13.6689 9C13.1025 9.90332 11.9014 10.5527 10.4902 10.748L10.1484 10.0059ZM21.3887 8.16016C21.3887 9.26367 22.2139 10.2793 23.5566 10.6992L23.1074 11.4316C22.1016 11.1143 21.3447 10.4502 20.9443 9.5957C20.5635 10.5088 19.8066 11.2266 18.7715 11.5684L18.3223 10.8457C19.6602 10.416 20.4707 9.33691 20.4707 8.16016V7.95508H18.5664V7.20312H20.4707V6.13867H21.3984V7.20312H23.293V7.95508H21.3887V8.16016ZM19.9336 14.6445V12.0273H20.8613V13.8926H25.8516V14.6445H19.9336ZM22.9902 9.48828V8.73633H24.6895V6.08984H25.6172V12.6035H24.6895V9.48828H22.9902Z" fill="white"/>
</svg>
